<?xml version="1.0" standalone="no"?>
<svg xmlns="http://www.w3.org/2000/svg" width="32" height="32"><rect width="32" height="32" opacity="0"></rect><g><path d="M14.3 21.7Q14.82 21.7 15.3 21.5Q15.78 21.31 16.16 20.93L24.38 12.67Q24.67 12.38 24.67 11.97Q24.67 11.55 24.38 11.26Q24.1 10.98 23.68 10.98Q23.26 10.98 22.98 11.26L14.72 19.52Q14.56 19.68 14.3 19.68Q14.05 19.68 13.89 19.52L9.7 15.33Q9.41 15.04 8.99 15.04Q8.58 15.04 8.29 15.33Q8 15.62 8 16.03Q8 16.45 8.29 16.74L12.48 20.93Q12.83 21.31 13.31 21.5Q13.79 21.7 14.3 21.7Z" fill="rgba(0,0,0,0.9019607843137255)"></path><path d="M16 3.33Q19.42 3.33 22.34 5.04Q25.25 6.75 26.96 9.66Q28.67 12.58 28.67 16Q28.67 19.42 26.96 22.34Q25.25 25.25 22.34 26.96Q19.42 28.67 16 28.67Q12.58 28.67 9.66 26.96Q6.75 25.25 5.04 22.34Q3.33 19.42 3.33 16Q3.33 12.58 5.04 9.66Q6.75 6.75 9.66 5.04Q12.58 3.33 16 3.33ZM16 1.34Q12.03 1.34 8.66 3.31Q5.28 5.28 3.31 8.66Q1.34 12.03 1.34 16Q1.34 19.97 3.31 23.34Q5.28 26.72 8.66 28.69Q12.03 30.66 16 30.66Q19.97 30.66 23.34 28.69Q26.72 26.72 28.69 23.34Q30.66 19.97 30.66 16Q30.66 12.03 28.69 8.66Q26.72 5.28 23.34 3.31Q19.97 1.34 16 1.34Z" fill="rgba(0,0,0,0.9019607843137255)"></path></g></svg>