<?xml version="1.0" standalone="no"?>
<svg xmlns="http://www.w3.org/2000/svg" width="32" height="32"><rect width="32" height="32" opacity="0"></rect><g mask="url(#hms_mask_0)"><path d="M16 1.34Q12 1.34 8.64 3.31Q5.28 5.28 3.31 8.64Q1.34 12 1.34 16Q1.34 19.97 3.31 23.34Q5.28 26.72 8.66 28.69Q12.03 30.66 16 30.66Q19.97 30.66 23.34 28.69Q26.72 26.72 28.69 23.34Q30.66 19.97 30.66 16Q30.66 12 28.69 8.64Q26.72 5.28 23.36 3.31Q20 1.34 16 1.34Z" fill="rgba(0,0,0,0.9019607843137255)"></path></g><defs><mask id="hms_mask_0"><rect width="32" height="32" fill="#ffffff"></rect><g><path d="M14.3 21.7Q13.79 21.7 13.31 21.5Q12.83 21.31 12.48 20.93L8.29 16.74Q8 16.45 8 16.03Q8 15.62 8.29 15.33Q8.58 15.04 8.99 15.04Q9.41 15.04 9.7 15.33L13.89 19.52Q14.05 19.68 14.3 19.68Q14.56 19.68 14.72 19.52L22.98 11.26Q23.26 10.98 23.68 10.98Q24.1 10.98 24.38 11.26Q24.67 11.55 24.67 11.97Q24.67 12.38 24.38 12.67L16.16 20.93Q15.39 21.7 14.3 21.7Z" fill="#000000"></path></g></mask></defs></svg>