<?xml version="1.0" standalone="no"?>
<svg xmlns="http://www.w3.org/2000/svg" width="32" height="32"><rect width="32" height="32" opacity="0"></rect><g><path d="M14.24 3.52Q15.14 3.36 16.03 3.34Q16.93 3.33 17.82 3.42L18.08 1.44Q17.02 1.31 15.97 1.34Q14.91 1.38 13.89 1.54L14.24 3.52ZM8.22 6.08Q8.86 5.57 9.7 5.07Q10.53 4.58 11.3 4.22L10.53 2.37Q9.7 2.72 8.7 3.33Q7.71 3.94 6.94 4.54L8.22 6.08ZM4.32 11.3Q4.61 10.46 5.04 9.7Q5.47 8.93 6.05 8.13L4.45 6.94Q3.94 7.62 3.36 8.64Q2.78 9.66 2.43 10.59L4.32 11.3ZM3.52 17.76Q3.36 17.02 3.36 16.22Q3.36 15.42 3.42 14.3Q3.42 14.21 3.42 14.14L1.44 13.92Q1.34 14.94 1.36 16.03Q1.38 17.12 1.54 18.08L3.52 17.76ZM6.08 23.78Q5.57 23.14 5.07 22.3Q4.58 21.47 4.22 20.7L2.37 21.47Q2.82 22.5 3.3 23.3Q3.78 24.1 4.54 25.06L6.08 23.78ZM11.3 27.68Q10.46 27.39 9.65 26.94Q8.83 26.5 8.13 25.95L6.94 27.55Q7.58 28.1 8.64 28.66Q9.7 29.22 10.59 29.57L11.3 27.68ZM13.92 30.56Q14.91 30.69 16 30.66Q17.09 30.62 18.11 30.46L17.76 28.48Q15.97 28.77 14.14 28.58L13.92 30.56ZM21.47 29.63Q22.46 29.22 23.36 28.67Q24.26 28.13 25.06 27.49L23.78 25.92Q22.98 26.56 22.18 27.04Q21.38 27.52 20.7 27.81L21.47 29.63ZM27.55 25.09Q28.8 23.39 29.57 21.44L27.68 20.7Q27.39 21.54 26.93 22.4Q26.46 23.26 25.95 23.87L27.55 25.09ZM30.56 18.08Q30.66 17.06 30.64 15.97Q30.62 14.88 30.46 13.92L28.48 14.24Q28.64 14.98 28.64 15.78Q28.64 16.58 28.58 17.7Q28.58 17.76 28.58 17.86L30.56 18.08ZM29.63 10.53Q29.22 9.54 28.67 8.64Q28.13 7.74 27.49 6.94L25.92 8.22Q26.56 9.02 27.04 9.82Q27.52 10.62 27.81 11.3L29.63 10.53ZM25.09 4.45Q23.39 3.2 21.44 2.43L20.7 4.32Q21.38 4.54 22.35 5.07Q23.33 5.6 23.87 6.05L25.09 4.45Z" fill="rgba(0,0,0,0.9019607843137255)"></path></g></svg>