<?xml version="1.0" standalone="no"?>
<svg xmlns="http://www.w3.org/2000/svg" width="32" height="32"><rect width="32" height="32" opacity="0"></rect><g><path d="M3.33 5.66Q2.43 5.66 1.66 6.11Q0.9 6.56 0.45 7.33Q0 8.1 0 8.99L0 23.01Q0 23.9 0.45 24.67Q0.9 25.44 1.66 25.89Q2.43 26.34 3.33 26.34L20 26.34Q20.9 26.34 21.66 25.89Q22.43 25.44 22.88 24.67Q23.33 23.9 23.33 23.01L23.33 8.99Q23.33 8.1 22.88 7.33Q22.43 6.56 21.66 6.11Q20.9 5.66 20 5.66L3.33 5.66ZM9.31 15.65Q9.31 14.4 10.19 13.52Q11.07 12.64 12.32 12.64Q13.54 12.64 14.42 13.52Q15.3 14.4 15.3 15.65Q15.3 16.9 14.42 17.78Q13.54 18.66 12.32 18.66Q11.07 18.66 10.19 17.78Q9.31 16.9 9.31 15.65ZM29.09 22.98Q29.73 23.3 30.42 23.14Q31.1 22.98 31.55 22.45Q32 21.92 32 21.18L32 10.78Q32 10.05 31.55 9.52Q31.1 8.99 30.42 8.83Q29.73 8.67 29.09 9.02L25.09 11.07L25.09 20.93L29.09 22.98Z" fill="rgba(0,0,0,0.9019607843137255)"></path></g></svg>