<?xml version="1.0" standalone="no"?>
<svg xmlns="http://www.w3.org/2000/svg" width="32" height="32"><rect width="32" height="32" opacity="0"></rect><g mask="url(#hms_mask_0)"><path d="M27.17 16.1Q23.52 12.61 19.84 9.15L17.41 6.88Q16.8 6.3 15.98 6.3Q15.17 6.3 14.56 6.88L4.86 16.1Q4.61 16.35 4.48 16.67Q4.35 16.99 4.35 17.31L4.35 26.66Q4.35 27.49 4.75 28.18Q5.15 28.86 5.84 29.26Q6.53 29.66 7.36 29.66L24.67 29.66Q25.47 29.66 26.16 29.26Q26.85 28.86 27.25 28.18Q27.65 27.49 27.65 26.66L27.65 17.28Q27.65 16.93 27.52 16.62Q27.39 16.32 27.17 16.1Z" fill="rgba(0,0,0,0.9019607843137255)"></path><path d="M1.98 15.3Q2.24 15.55 2.69 15.57Q3.14 15.58 3.39 15.33L14.14 5.12Q14.94 4.35 16.02 4.35Q17.09 4.35 17.89 5.12L28.64 15.3Q28.93 15.58 29.34 15.58Q29.76 15.58 30.05 15.26Q30.3 14.98 30.3 14.56Q30.3 14.14 30.02 13.86L19.26 3.68Q18.37 2.82 17.18 2.51Q16 2.21 14.82 2.51Q13.63 2.82 12.74 3.68L2.02 13.86Q1.7 14.14 1.7 14.56Q1.7 14.98 1.98 15.3Z" fill="rgba(0,0,0,0.9019607843137255)"></path></g><defs><mask id="hms_mask_0"><rect width="32" height="32" fill="#ffffff"></rect><g><path d="M12.03 27.65L12.03 21.57Q12.03 20.06 13.18 19.01Q14.34 17.95 16 17.95Q17.66 17.95 18.82 19.01Q19.97 20.06 19.97 21.57L19.97 27.65Z" fill="#000000"></path></g></mask></defs></svg>