<?xml version="1.0" standalone="no"?>
<svg xmlns="http://www.w3.org/2000/svg" width="32" height="32"><rect width="32" height="32" opacity="0"></rect><g><path d="M26.66 16Q26.24 16 25.95 16.3Q25.66 16.61 25.66 17.02L25.66 26.66Q25.66 27.07 25.36 27.36Q25.06 27.65 24.64 27.65L20.96 27.65L20.96 21.92Q20.96 20.58 20.29 19.44Q19.62 18.3 18.48 17.63Q17.34 16.96 16 16.96Q14.62 16.96 13.49 17.63Q12.35 18.3 11.68 19.44Q11.01 20.58 11.01 21.92L11.01 27.65L7.3 27.65Q6.91 27.65 6.61 27.34Q6.3 27.04 6.3 26.62L6.3 17.02Q6.3 16.61 6.02 16.3Q5.73 16 5.31 16Q4.9 16 4.61 16.3Q4.32 16.61 4.32 17.02L4.32 26.62Q4.32 27.46 4.72 28.14Q5.12 28.83 5.81 29.23Q6.5 29.63 7.3 29.63L24.64 29.63Q25.44 29.63 26.13 29.23Q26.82 28.83 27.23 28.14Q27.65 27.46 27.65 26.66L27.65 17.02Q27.65 16.61 27.36 16.3Q27.07 16 26.66 16ZM13.02 21.92Q13.02 20.7 13.9 19.82Q14.78 18.94 16 18.94Q17.22 18.94 18.1 19.82Q18.98 20.7 18.98 21.92L18.98 27.65L13.02 27.65L13.02 21.92ZM30.05 15.26Q30.3 14.98 30.3 14.56Q30.3 14.14 30.02 13.86L19.26 3.68Q18.37 2.82 17.18 2.51Q16 2.21 14.82 2.51Q13.63 2.82 12.74 3.68L2.02 13.86Q1.7 14.14 1.7 14.56Q1.7 14.98 1.98 15.3Q2.24 15.55 2.69 15.57Q3.14 15.58 3.39 15.33L14.14 5.12Q14.94 4.35 16.02 4.35Q17.09 4.35 17.89 5.12L28.64 15.3Q28.93 15.58 29.34 15.58Q29.76 15.58 30.05 15.26Z" fill="rgba(0,0,0,0.9019607843137255)"></path></g></svg>