<?xml version="1.0" standalone="no"?>
<svg xmlns="http://www.w3.org/2000/svg" width="32" height="32"><rect width="32" height="32" opacity="0"></rect><g><path d="M16 21.57Q17.6 21.57 18.96 20.77Q20.32 19.97 21.12 18.61Q21.92 17.25 21.92 15.65Q21.92 14.05 21.12 12.7Q20.32 11.36 18.96 10.56Q17.6 9.76 16 9.76Q14.4 9.76 13.04 10.56Q11.68 11.36 10.88 12.7Q10.08 14.05 10.08 15.65Q10.08 17.25 10.88 18.61Q11.68 19.97 13.04 20.77Q14.4 21.57 16 21.57ZM1.34 15.65Q1.34 16.06 1.63 16.35Q1.92 16.64 2.34 16.64Q2.75 16.64 3.04 16.35Q3.33 16.06 3.33 15.65Q3.33 15.23 3.04 14.94Q2.75 14.66 2.34 14.66Q1.92 14.66 1.63 14.94Q1.34 15.23 1.34 15.65ZM1.82 19.17Q1.82 19.58 2.11 19.87Q2.4 20.16 2.82 20.16Q3.23 20.16 3.5 19.87Q3.78 19.58 3.78 19.17Q3.78 18.75 3.5 18.46Q3.23 18.18 2.82 18.18Q2.4 18.18 2.11 18.46Q1.82 18.75 1.82 19.17ZM1.82 12.1Q1.82 12.51 2.11 12.8Q2.4 13.09 2.82 13.09Q3.23 13.09 3.5 12.8Q3.78 12.51 3.78 12.1Q3.78 11.68 3.5 11.39Q3.23 11.1 2.82 11.1Q2.4 11.1 2.11 11.39Q1.82 11.68 1.82 12.1ZM3.17 22.46Q3.17 22.88 3.46 23.17Q3.74 23.46 4.16 23.46Q4.58 23.46 4.86 23.17Q5.15 22.88 5.15 22.46Q5.15 22.05 4.86 21.76Q4.58 21.47 4.16 21.47Q3.74 21.47 3.46 21.76Q3.17 22.05 3.17 22.46ZM3.2 8.8Q3.2 9.22 3.47 9.5Q3.74 9.79 4.16 9.79Q4.58 9.79 4.86 9.5Q5.15 9.22 5.15 8.8Q5.15 8.38 4.86 8.1Q4.58 7.81 4.16 7.81Q3.74 7.81 3.47 8.1Q3.2 8.38 3.2 8.8ZM5.34 25.31Q5.34 25.73 5.62 26.02Q5.89 26.3 6.3 26.3Q6.72 26.3 7.01 26.02Q7.3 25.73 7.3 25.31Q7.3 24.9 7.01 24.61Q6.72 24.32 6.3 24.32Q5.89 24.32 5.62 24.61Q5.34 24.9 5.34 25.31ZM5.38 5.98Q5.38 6.4 5.65 6.67Q5.92 6.94 6.34 6.94Q6.75 6.94 7.04 6.67Q7.33 6.4 7.33 5.98Q7.33 5.57 7.04 5.28Q6.75 4.99 6.34 4.99Q5.92 4.99 5.65 5.28Q5.38 5.57 5.38 5.98ZM5.66 15.65Q5.66 18.46 7.06 20.83Q8.45 23.2 10.82 24.59Q13.18 25.98 16 25.98Q18.82 25.98 21.18 24.59Q23.55 23.2 24.94 20.83Q26.34 18.46 26.34 15.65Q26.34 12.83 24.94 10.46Q23.55 8.1 21.18 6.7Q18.82 5.31 16 5.31Q13.18 5.31 10.82 6.7Q8.45 8.1 7.06 10.46Q5.66 12.83 5.66 15.65ZM7.68 15.65Q7.68 13.38 8.8 11.46Q9.92 9.54 11.82 8.42Q13.73 7.3 16 7.3Q18.27 7.3 20.18 8.42Q22.08 9.54 23.2 11.46Q24.32 13.38 24.32 15.65Q24.32 17.92 23.2 19.84Q22.08 21.76 20.18 22.88Q18.27 24 16 24Q13.73 24 11.82 22.88Q9.92 21.76 8.8 19.84Q7.68 17.92 7.68 15.65ZM8.16 27.49Q8.16 27.9 8.45 28.19Q8.74 28.48 9.15 28.48Q9.57 28.48 9.86 28.19Q10.14 27.9 10.14 27.49Q10.14 27.07 9.86 26.78Q9.57 26.5 9.15 26.5Q8.74 26.5 8.45 26.78Q8.16 27.07 8.16 27.49ZM8.19 3.81Q8.19 4.22 8.48 4.51Q8.77 4.8 9.18 4.8Q9.6 4.8 9.89 4.51Q10.18 4.22 10.18 3.81Q10.18 3.39 9.89 3.1Q9.6 2.82 9.18 2.82Q8.77 2.82 8.48 3.1Q8.19 3.39 8.19 3.81ZM11.46 28.83Q11.46 29.25 11.74 29.54Q12.03 29.82 12.45 29.82Q12.86 29.82 13.15 29.54Q13.44 29.25 13.44 28.83Q13.44 28.42 13.15 28.13Q12.86 27.84 12.45 27.84Q12.03 27.84 11.74 28.13Q11.46 28.42 11.46 28.83ZM11.49 2.43Q11.49 2.85 11.78 3.14Q12.06 3.42 12.48 3.42Q12.9 3.42 13.18 3.14Q13.47 2.85 13.47 2.43Q13.47 2.02 13.18 1.73Q12.9 1.44 12.48 1.44Q12.06 1.44 11.78 1.73Q11.49 2.02 11.49 2.43ZM12.1 15.65Q12.1 14.59 12.62 13.7Q13.15 12.8 14.05 12.27Q14.94 11.74 16 11.74Q17.06 11.74 17.95 12.27Q18.85 12.8 19.38 13.7Q19.9 14.59 19.9 15.65Q19.9 16.7 19.38 17.6Q18.85 18.5 17.95 19.02Q17.06 19.55 16 19.55Q14.94 19.55 14.05 19.02Q13.15 18.5 12.62 17.6Q12.1 16.7 12.1 15.65ZM15.01 29.31Q15.01 29.73 15.3 30.02Q15.58 30.3 16 30.3Q16.42 30.3 16.69 30.02Q16.96 29.73 16.96 29.31Q16.96 28.9 16.69 28.61Q16.42 28.32 16 28.32Q15.58 28.32 15.3 28.61Q15.01 28.9 15.01 29.31ZM15.04 1.98Q15.04 2.4 15.31 2.69Q15.58 2.98 16 2.98Q16.42 2.98 16.7 2.69Q16.99 2.4 16.99 1.98Q16.99 1.57 16.7 1.28Q16.42 0.99 16 0.99Q15.58 0.99 15.31 1.28Q15.04 1.57 15.04 1.98ZM18.53 28.86Q18.53 29.28 18.82 29.55Q19.1 29.82 19.52 29.82Q19.94 29.82 20.22 29.55Q20.51 29.28 20.51 28.86Q20.51 28.45 20.22 28.16Q19.94 27.87 19.52 27.87Q19.1 27.87 18.82 28.16Q18.53 28.45 18.53 28.86ZM18.56 2.46Q18.56 2.88 18.85 3.17Q19.14 3.46 19.55 3.46Q19.97 3.46 20.26 3.17Q20.54 2.88 20.54 2.46Q20.54 2.05 20.26 1.76Q19.97 1.47 19.55 1.47Q19.14 1.47 18.85 1.76Q18.56 2.05 18.56 2.46ZM21.82 27.49Q21.82 27.9 22.11 28.19Q22.4 28.48 22.82 28.48Q23.23 28.48 23.52 28.19Q23.81 27.9 23.81 27.49Q23.81 27.07 23.52 26.78Q23.23 26.5 22.82 26.5Q22.4 26.5 22.11 26.78Q21.82 27.07 21.82 27.49ZM21.86 3.81Q21.86 4.22 22.14 4.51Q22.43 4.8 22.85 4.8Q23.26 4.8 23.55 4.51Q23.84 4.22 23.84 3.81Q23.84 3.39 23.55 3.1Q23.26 2.82 22.85 2.82Q22.43 2.82 22.14 3.1Q21.86 3.39 21.86 3.81ZM24.67 25.31Q24.67 25.73 24.96 26.02Q25.25 26.3 25.66 26.3Q26.08 26.3 26.35 26.02Q26.62 25.73 26.62 25.31Q26.62 24.9 26.35 24.61Q26.08 24.32 25.66 24.32Q25.25 24.32 24.96 24.61Q24.67 24.9 24.67 25.31ZM24.67 5.98Q24.67 6.4 24.96 6.69Q25.25 6.98 25.66 6.98Q26.08 6.98 26.37 6.69Q26.66 6.4 26.66 5.98Q26.66 5.57 26.37 5.28Q26.08 4.99 25.66 4.99Q25.25 4.99 24.96 5.28Q24.67 5.57 24.67 5.98ZM26.85 22.5Q26.85 22.91 27.14 23.2Q27.42 23.49 27.84 23.49Q28.26 23.49 28.53 23.2Q28.8 22.91 28.8 22.5Q28.8 22.08 28.53 21.79Q28.26 21.5 27.84 21.5Q27.42 21.5 27.14 21.79Q26.85 22.08 26.85 22.5ZM26.85 8.83Q26.85 9.25 27.14 9.54Q27.42 9.82 27.84 9.82Q28.26 9.82 28.54 9.54Q28.83 9.25 28.83 8.83Q28.83 8.42 28.54 8.13Q28.26 7.84 27.84 7.84Q27.42 7.84 27.14 8.13Q26.85 8.42 26.85 8.83ZM28.22 19.2Q28.22 19.62 28.51 19.9Q28.8 20.19 29.22 20.19Q29.63 20.19 29.9 19.9Q30.18 19.62 30.18 19.2Q30.18 18.78 29.9 18.5Q29.63 18.21 29.22 18.21Q28.8 18.21 28.51 18.5Q28.22 18.78 28.22 19.2ZM28.22 12.13Q28.22 12.54 28.51 12.83Q28.8 13.12 29.22 13.12Q29.63 13.12 29.9 12.83Q30.18 12.54 30.18 12.13Q30.18 11.71 29.9 11.42Q29.63 11.14 29.22 11.14Q28.8 11.14 28.51 11.42Q28.22 11.71 28.22 12.13ZM28.67 15.68Q28.67 16.1 28.96 16.37Q29.25 16.64 29.66 16.64Q30.08 16.64 30.37 16.37Q30.66 16.1 30.66 15.68Q30.66 15.26 30.37 14.98Q30.08 14.69 29.66 14.69Q29.25 14.69 28.96 14.98Q28.67 15.26 28.67 15.68Z" fill="rgba(0,0,0,0.9019607843137255)"></path></g></svg>