<?xml version="1.0" standalone="no"?>
<svg xmlns="http://www.w3.org/2000/svg" width="32" height="32"><rect width="32" height="32" opacity="0"></rect><g mask="url(#hms_mask_0)"><path d="M7.9 2.66Q6.5 2.66 5.28 3.36Q4.06 4.06 3.36 5.28Q2.66 6.5 2.66 7.9L2.66 24.06Q2.66 25.5 3.36 26.72Q4.06 27.94 5.28 28.64Q6.5 29.34 7.9 29.34L24.06 29.34Q25.5 29.34 26.7 28.64Q27.9 27.94 28.61 26.72Q29.31 25.5 29.31 24.06L29.31 7.9Q29.31 6.5 28.61 5.28Q27.9 4.06 26.7 3.36Q25.5 2.66 24.1 2.66L7.9 2.66Z" fill="rgba(0,0,0,0.9019607843137255)"></path></g><defs><mask id="hms_mask_0"><rect width="32" height="32" fill="#ffffff"></rect><g><path d="M7.87 27.33Q6.62 27.33 5.71 26.48Q4.8 25.63 4.67 24.38L18.08 14.62Q18.72 14.18 19.47 14.03Q20.22 13.89 20.96 14.1Q21.7 14.3 22.27 14.82L27.33 19.14L27.33 24.06Q27.33 25.41 26.38 26.37Q25.44 27.33 24.1 27.33L7.87 27.33ZM11.33 9.66Q12.29 9.66 12.98 10.35Q13.66 11.04 13.66 12Q13.66 12.96 12.98 13.65Q12.29 14.34 11.33 14.34Q10.37 14.34 9.68 13.65Q8.99 12.96 8.99 12Q8.99 11.04 9.68 10.35Q10.37 9.66 11.33 9.66Z" fill="#000000"></path></g></mask></defs></svg>